Patient4_TMGait_0pt8_01_left_09_GRF.mot
version=1
nRows=33
nColumns=19
inDegrees=no
endheader
time	F1x	F1y	F1z	M1x	M1y	M1z	F2x	F2y	F2z	M2x	M2y	M2z	EC1x	EC1y	EC1z	EC2x	EC2y	EC2z
9.28	-15.3452	15.0791	-8.0241	-3.5722	2.7359	14.5421	-45.3746	736.7963	-58.8983	281.5748	81.9326	833.5671	-0.0592	0.0182	-0.0073	-0.0462	0.0165	0.9585
9.291	-10.3988	10.8992	-5.1897	-2.6973	1.5948	10.666	-41.4508	731.358	-59.8052	279.296	81.4793	824.2529	-0.0592	0.0182	-0.0073	-0.0462	0.0165	0.9585
9.302	-6.2745	7.4024	-2.8404	-1.9602	0.65194	7.4252	-37.6552	725.2222	-60.1125	276.6363	80.3658	813.6518	-0.0592	0.0182	-0.0073	-0.0462	0.0165	0.9585
9.313	-3.1605	4.7633	-1.0692	-1.4026	-0.058084	4.9777	-34.0739	718.9826	-59.9181	273.8722	78.7055	802.4941	-0.0592	0.0182	-0.0073	-0.0462	0.0165	0.9585
9.324	-1.0355	3.0022	0.1259	-1.0331	-0.53192	3.3768	-30.6847	713.3791	-59.3535	271.3348	76.6397	791.6614	-0.0592	0.0182	-0.0073	-0.0462	0.0165	0.9585
9.335	0.25636	1.9735	0.84213	-0.82316	-0.8189	2.4711	-27.3716	709.1239	-58.5896	269.3424	74.3289	781.9694	-0.0592	0.0182	-0.0073	-0.0462	0.0165	0.9585
9.346	0.89106	1.5067	1.198	-0.73462	-0.98022	2.1115	-24.0095	706.8421	-57.753	268.1666	71.8871	774.1133	-0.0592	0.0182	-0.0073	-0.0462	0.0165	0.9585
9.357	1.0748	1.3851	1.3109	-0.71763	-1.0647	2.071	-20.5004	706.901	-56.9881	267.9727	69.4478	768.4885	-0.0592	0.0182	-0.0073	-0.0462	0.0165	0.9585
9.368	0.93401	1.4161	1.2953	-0.72342	-1.1387	2.1692	-16.7729	709.4491	-56.3893	268.8249	67.0999	765.2668	-0.0592	0.0182	-0.0073	-0.0462	0.0165	0.9585
9.379	0.61838	1.4246	1.2162	-0.70357	-1.2163	2.2099	-12.7942	714.3341	-56.0288	270.6643	64.9117	764.2948	-0.0592	0.0182	-0.0073	-0.0462	0.0165	0.9585
9.39	0.18609	1.2403	1.1383	-0.60591	-1.3342	2.0037	-8.5677	721.1412	-55.945	273.3231	62.9183	765.1326	-0.0592	0.0182	-0.0073	-0.0462	0.0165	0.9585
9.401	-0.28674	0.73052	1.0881	-0.38418	-1.4937	1.3668	-4.1309	729.248	-56.1056	276.5503	61.0891	767.1327	-0.0592	0.0182	-0.0073	-0.0462	0.0165	0.9585
9.412	-0.74704	-0.23094	1.0707	0.0060387	-1.6792	0.12852	0.48754	737.8515	-56.4828	280.028	59.3847	769.4714	-0.0592	0.0182	-0.0073	-0.0462	0.0165	0.9585
9.423	-1.1328	-1.7343	1.09	0.59043	-1.8668	-1.8152	5.2768	746.1003	-57.015	283.4196	57.7234	771.3095	-0.0592	0.0182	-0.0073	-0.0462	0.0165	0.9585
9.434	-1.3463	-3.7925	1.1073	1.3672	-1.9714	-4.4521	10.2221	753.1351	-57.6805	286.3843	56.0711	771.8145	-0.0592	0.0182	-0.0073	-0.0462	0.0165	0.9585
9.445	-1.2694	-6.2506	1.0769	2.2773	-1.8884	-7.5869	15.2342	758.179	-58.4632	288.6046	54.434	770.2778	-0.0592	0.0182	-0.0073	-0.0462	0.0165	0.9585
9.456	-0.72127	-8.7523	0.91521	3.186	-1.4544	-10.7764	20.1713	760.5297	-59.3675	289.7873	52.8729	766.1042	-0.0592	0.0182	-0.0073	-0.0462	0.0165	0.9585
9.467	0.50474	-10.6195	0.5285	3.8428	-0.48483	-13.1781	24.7986	759.637	-60.3971	289.6943	51.4902	758.9108	-0.0592	0.0182	-0.0073	-0.0462	0.0165	0.9585
9.478	2.64	-10.7969	-0.18688	3.8564	1.2275	-13.4964	28.906	755.2175	-61.529	288.1927	50.3718	748.5792	-0.0592	0.0182	-0.0073	-0.0462	0.0165	0.9585
9.489	5.8715	-7.7683	-1.3443	2.6719	3.8859	-9.8415	32.2863	747.3431	-62.7091	285.2894	49.5688	735.3532	-0.0592	0.0182	-0.0073	-0.0462	0.0165	0.9585
9.5	10.2806	0.39951	-3.0141	-0.41804	7.6049	0.17152	34.8548	736.4122	-63.8299	281.1278	49.0381	719.7418	-0.0592	0.0182	-0.0073	-0.0462	0.0165	0.9585
9.511	15.692	15.9733	-5.2092	-6.2379	12.3324	19.3626	36.6031	723.0734	-64.7655	275.9542	48.6856	702.4597	-0.0592	0.0182	-0.0073	-0.0462	0.0165	0.9585
9.522	21.5713	41.2249	-7.7919	-15.6071	17.6893	50.5488	37.6738	708.035	-65.3386	270.0535	48.3165	684.2026	-0.0592	0.0182	-0.0073	-0.0462	0.0165	0.9585
9.533	26.7369	77.8515	-10.4118	-29.1177	22.7965	95.8512	38.2615	691.8898	-65.3847	263.6693	47.7191	665.5143	-0.0592	0.0182	-0.0073	-0.0462	0.0165	0.9585
9.544	29.2946	126.0662	-12.4004	-46.805	26.1175	155.5609	38.611	674.8058	-64.7441	256.8932	46.6623	646.477	-0.0592	0.0182	-0.0073	-0.0462	0.0165	0.9585
9.555	26.9748	184.0878	-12.8029	-67.9561	25.6909	227.5623	38.9623	656.3797	-63.2903	249.602	44.9395	626.6228	-0.0592	0.0182	-0.0073	-0.0462	0.0165	0.9585
9.566	19.0735	248.7004	-10.749	-91.3064	20.1845	307.9455	39.4978	635.6506	-60.9584	241.4627	42.4102	604.9282	-0.0592	0.0182	-0.0073	-0.0462	0.0165	0.9585
9.577	7.001	315.3075	-5.4898	-115.0801	9.1929	390.9406	40.2646	611.2809	-57.7361	231.9942	39.0279	580.0605	-0.0592	0.0182	-0.0073	-0.0462	0.0165	0.9585
9.588	-7.0529	377.7877	3.3342	-137.0559	-6.8333	468.6284	41.1607	581.7336	-53.7455	220.629	34.9263	550.537	-0.0592	0.0182	-0.0073	-0.0462	0.0165	0.9585
9.599	-20.9704	431.7803	14.7136	-155.7457	-25.8187	535.2084	41.9273	545.6725	-49.1179	206.8663	30.3116	515.0731	-0.0592	0.0182	-0.0073	-0.0462	0.0165	0.9585
9.61	-33.3878	476.8685	26.815	-171.1194	-44.9991	589.9018	42.1746	502.4806	-43.9828	190.4623	25.4395	473.1133	-0.0592	0.0182	-0.0073	-0.0462	0.0165	0.9585
9.621	-43.7927	515.4022	38.0378	-184.1324	-62.1955	635.5804	41.4808	452.4253	-38.5023	171.5033	20.6139	424.9446	-0.0592	0.0182	-0.0073	-0.0462	0.0165	0.9585
9.632	-51.8621	550.0305	47.23	-195.8315	-75.9285	675.5264	39.4297	396.6951	-32.8183	150.4187	16.115	371.7462	-0.0592	0.0182	-0.0073	-0.0462	0.0165	0.9585
